<?xml version="1.0" standalone="no"?>
<!DOCTYPE svg PUBLIC "-//W3C//DTD SVG 20010904//EN"
 "http://www.w3.org/TR/2001/REC-SVG-20010904/DTD/svg10.dtd">
<svg version="1.0" xmlns="http://www.w3.org/2000/svg"
 width="402.000000pt" height="70.000000pt" viewBox="0 0 402.000000 70.000000"
 preserveAspectRatio="xMidYMid meet">

<g transform="translate(0.000000,70.000000) scale(0.100000,-0.100000)"
fill="#284b63" stroke="none">
<path d="M315 547 c-50 -45 -119 -107 -153 -138 -60 -53 -62 -56 -45 -72 18
-15 26 -10 153 103 73 66 137 120 140 120 3 0 67 -54 140 -120 127 -112 135
-118 153 -103 17 16 17 17 0 33 -69 64 -292 260 -295 260 -2 -1 -44 -38 -93
-83z"/>
<path d="M1310 415 l0 -215 25 0 25 0 0 215 0 215 -25 0 -25 0 0 -215z"/>
<path d="M970 400 l0 -200 131 0 c130 0 130 0 127 23 -3 21 -8 22 -105 25
l-103 3 0 64 0 65 91 0 c88 0 90 1 87 23 -3 21 -8 22 -90 25 l-88 3 0 64 0 65
100 0 c93 0 100 1 100 20 0 19 -7 20 -125 20 l-125 0 0 -200z"/>
<path d="M2560 400 l0 -200 25 0 c25 0 25 1 25 90 l0 90 110 0 110 0 0 -90 c0
-89 0 -90 25 -90 l25 0 0 200 0 200 -25 0 c-25 0 -25 -1 -25 -85 l0 -85 -110
0 -110 0 0 85 c0 84 0 85 -25 85 l-25 0 0 -200z"/>
<path d="M190 535 c0 -30 2 -55 5 -55 17 0 75 66 75 86 0 21 -4 24 -40 24
l-40 0 0 -55z"/>
<path d="M1940 490 c0 -68 -1 -70 -25 -70 -18 0 -25 -5 -25 -20 0 -15 7 -20
25 -20 25 0 25 -1 25 -90 0 -89 0 -90 25 -90 24 0 24 2 27 88 3 87 3 87 31 90
19 2 27 9 27 23 0 14 -7 19 -30 19 l-30 0 0 70 c0 68 -1 70 -25 70 -24 0 -25
-2 -25 -70z"/>
<path d="M297 424 l-108 -96 3 -142 3 -141 72 -3 72 -3 3 68 3 68 65 0 65 0 3
-68 3 -68 72 3 72 3 3 141 3 142 -106 93 c-59 52 -109 95 -113 96 -4 1 -55
-41 -115 -93z"/>
<path d="M1463 400 c-64 -38 -66 -132 -5 -180 43 -35 161 -20 131 16 -8 10
-22 13 -40 9 -29 -7 -73 10 -64 24 2 5 16 12 29 15 13 3 45 15 70 26 l47 20
-16 29 c-31 61 -92 78 -152 41z m95 -42 c-5 -14 -86 -43 -95 -34 -4 3 2 15 12
26 20 22 90 29 83 8z"/>
<path d="M1723 400 c-64 -38 -66 -132 -5 -180 43 -35 161 -20 131 16 -8 10
-22 13 -40 9 -28 -6 -67 8 -81 29 -14 20 -8 63 10 79 11 10 35 17 59 17 49 0
75 23 44 39 -31 17 -83 13 -118 -9z"/>
<path d="M2100 310 l0 -110 25 0 c24 0 25 2 25 68 0 72 16 102 52 102 15 0 28
19 28 41 0 17 -28 9 -59 -17 l-31 -26 0 26 c0 19 -5 26 -20 26 -19 0 -20 -7
-20 -110z"/>
<path d="M2320 403 c-66 -45 -72 -136 -13 -183 35 -27 111 -27 146 0 82 64 32
200 -73 200 -20 0 -47 -8 -60 -17z m97 -41 c6 -4 16 -19 22 -33 21 -57 -42
-109 -93 -76 -56 37 -37 117 27 117 17 0 37 -4 44 -8z"/>
<path d="M2993 400 c-42 -25 -62 -85 -43 -130 37 -89 166 -97 209 -13 36 71
-18 163 -95 163 -22 0 -53 -9 -71 -20z m109 -47 c37 -33 9 -113 -41 -113 -28
0 -71 39 -71 64 0 57 69 88 112 49z"/>
<path d="M3275 398 c-62 -49 -64 -136 -4 -179 25 -17 40 -21 85 -17 53 5 54 4
54 -21 0 -44 -26 -71 -69 -71 -20 0 -42 5 -47 10 -7 7 -16 4 -28 -9 -17 -19
-17 -20 13 -35 43 -22 103 -20 134 4 36 29 47 76 47 213 0 96 -3 119 -15 123
-8 4 -21 1 -28 -4 -8 -7 -18 -7 -27 -2 -27 17 -86 11 -115 -12z m121 -54 c22
-33 10 -72 -29 -94 -24 -13 -30 -13 -54 0 -67 37 -48 120 27 120 31 0 43 -5
56 -26z"/>
<path d="M3575 398 c-60 -47 -64 -134 -9 -177 22 -17 40 -20 110 -20 l84 2 0
104 c0 83 -3 105 -15 109 -8 4 -21 1 -28 -4 -8 -7 -18 -7 -27 -2 -27 17 -86
11 -115 -12z m121 -54 c22 -33 10 -72 -29 -94 -24 -13 -30 -13 -54 0 -67 37
-48 120 27 120 31 0 43 -5 56 -26z"/>
<path d="M3840 310 l0 -110 25 0 c24 0 25 2 25 68 0 72 16 102 52 102 15 0 28
19 28 41 0 17 -28 9 -59 -17 l-31 -26 0 26 c0 19 -5 26 -20 26 -19 0 -20 -7
-20 -110z"/>
</g>
</svg>
